<?xml version="1.0" encoding="UTF-8"?>
<svg xmlns="http://www.w3.org/2000/svg" xmlns:xlink="http://www.w3.org/1999/xlink" width="80pt" height="80pt" viewBox="0 0 80 80" version="1.1">
<g id="surface45836229">
<path style=" stroke:none;fill-rule:nonzero;fill:rgb(0%,0%,0%);fill-opacity:1;" d="M 24 10 C 12.414062 10 3 19.414062 3 31 C 3 35.6875 5.378906 40.519531 8.820312 45.171875 C 12.261719 49.828125 16.808594 54.324219 21.34375 58.269531 C 30.414062 66.15625 39.46875 71.84375 39.46875 71.84375 L 40 72.183594 L 40.53125 71.84375 C 40.53125 71.84375 49.585938 66.15625 58.65625 58.269531 C 63.191406 54.324219 67.738281 49.828125 71.179688 45.171875 C 74.621094 40.519531 77 35.6875 77 31 C 77 19.414062 67.585938 10 56 10 C 49.546875 10 43.847656 13 40 17.585938 C 36.152344 13 30.453125 10 24 10 Z M 24 12 C 30.230469 12 35.730469 15.003906 39.199219 19.636719 L 40 20.703125 L 40.800781 19.636719 C 44.269531 15.003906 49.769531 12 56 12 C 66.503906 12 75 20.496094 75 31 C 75 35 72.878906 39.511719 69.570312 43.984375 C 66.261719 48.460938 61.808594 52.878906 57.34375 56.761719 C 48.835938 64.160156 40.789062 69.292969 40 69.796875 C 39.210938 69.292969 31.164062 64.160156 22.65625 56.761719 C 18.191406 52.878906 13.738281 48.460938 10.429688 43.984375 C 7.121094 39.511719 5 35 5 31 C 5 20.496094 13.496094 12 24 12 Z M 24 15 C 23.449219 15 23 15.449219 23 16 C 23 16.550781 23.449219 17 24 17 C 24.550781 17 25 16.550781 25 16 C 25 15.449219 24.550781 15 24 15 Z M 56 15 C 55.449219 15 55 15.449219 55 16 C 55 16.550781 55.449219 17 56 17 C 56.550781 17 57 16.550781 57 16 C 57 15.449219 56.550781 15 56 15 Z M 20.15625 15.511719 C 20.054688 15.507812 19.957031 15.519531 19.859375 15.546875 C 19.324219 15.6875 19.007812 16.234375 19.152344 16.769531 C 19.296875 17.304688 19.84375 17.621094 20.375 17.476562 C 20.910156 17.332031 21.226562 16.785156 21.082031 16.25 C 20.96875 15.828125 20.59375 15.527344 20.15625 15.511719 Z M 52.125 15.511719 C 52.101562 15.511719 52.078125 15.511719 52.058594 15.515625 C 51.988281 15.519531 51.925781 15.527344 51.859375 15.546875 C 51.324219 15.691406 51.007812 16.238281 51.152344 16.769531 C 51.296875 17.304688 51.84375 17.621094 52.375 17.480469 C 52.910156 17.335938 53.226562 16.789062 53.082031 16.253906 C 52.96875 15.820312 52.578125 15.515625 52.125 15.511719 Z M 27.875 15.515625 C 27.425781 15.515625 27.03125 15.820312 26.917969 16.253906 C 26.773438 16.789062 27.089844 17.335938 27.625 17.480469 C 28.15625 17.621094 28.703125 17.304688 28.847656 16.769531 C 28.992188 16.238281 28.675781 15.691406 28.140625 15.546875 C 28.054688 15.523438 27.964844 15.511719 27.875 15.515625 Z M 59.875 15.515625 C 59.425781 15.515625 59.03125 15.820312 58.917969 16.253906 C 58.847656 16.511719 58.882812 16.785156 59.015625 17.015625 C 59.148438 17.242188 59.367188 17.410156 59.625 17.480469 C 60.15625 17.625 60.703125 17.308594 60.847656 16.773438 C 60.917969 16.515625 60.882812 16.242188 60.75 16.011719 C 60.617188 15.785156 60.398438 15.617188 60.140625 15.546875 C 60.054688 15.523438 59.964844 15.511719 59.875 15.515625 Z M 16.476562 17.011719 C 16.308594 17.011719 16.144531 17.058594 16 17.140625 C 15.769531 17.273438 15.601562 17.492188 15.535156 17.75 C 15.464844 18.007812 15.5 18.28125 15.636719 18.511719 C 15.910156 18.988281 16.523438 19.152344 17 18.875 C 17.476562 18.597656 17.640625 17.988281 17.363281 17.511719 C 17.183594 17.191406 16.84375 17 16.476562 17.011719 Z M 48.472656 17.011719 C 48.308594 17.011719 48.144531 17.058594 48 17.140625 C 47.769531 17.273438 47.601562 17.492188 47.53125 17.75 C 47.464844 18.007812 47.5 18.28125 47.632812 18.511719 C 47.910156 18.988281 48.519531 19.152344 49 18.875 C 49.476562 18.597656 49.640625 17.988281 49.363281 17.511719 C 49.183594 17.191406 48.839844 17 48.472656 17.011719 Z M 31.453125 17.011719 C 31.113281 17.027344 30.804688 17.214844 30.636719 17.511719 C 30.5 17.738281 30.464844 18.011719 30.535156 18.269531 C 30.601562 18.527344 30.769531 18.746094 31 18.875 C 31.476562 19.152344 32.089844 18.988281 32.363281 18.511719 C 32.640625 18.03125 32.476562 17.421875 32 17.144531 C 31.835938 17.046875 31.644531 17.003906 31.453125 17.011719 Z M 63.453125 17.011719 C 63.113281 17.027344 62.804688 17.214844 62.636719 17.511719 C 62.359375 17.988281 62.523438 18.601562 63 18.875 C 63.230469 19.011719 63.503906 19.046875 63.757812 18.976562 C 64.015625 18.910156 64.234375 18.742188 64.367188 18.511719 C 64.5 18.28125 64.535156 18.007812 64.46875 17.753906 C 64.398438 17.496094 64.230469 17.277344 64 17.144531 C 63.835938 17.046875 63.644531 17.003906 63.453125 17.011719 Z M 13.40625 19.390625 C 13.136719 19.390625 12.875 19.496094 12.6875 19.6875 C 12.296875 20.074219 12.296875 20.710938 12.6875 21.097656 C 13.074219 21.488281 13.710938 21.488281 14.097656 21.097656 C 14.488281 20.710938 14.488281 20.074219 14.097656 19.6875 C 13.914062 19.5 13.667969 19.394531 13.40625 19.390625 Z M 34.621094 19.390625 C 34.351562 19.386719 34.089844 19.492188 33.898438 19.6875 C 33.507812 20.074219 33.507812 20.710938 33.898438 21.097656 C 34.289062 21.488281 34.921875 21.488281 35.3125 21.097656 C 35.703125 20.710938 35.703125 20.074219 35.3125 19.6875 C 35.128906 19.5 34.882812 19.398438 34.621094 19.390625 Z M 45.40625 19.390625 C 45.136719 19.390625 44.875 19.496094 44.6875 19.6875 C 44.296875 20.074219 44.296875 20.710938 44.6875 21.097656 C 45.074219 21.488281 45.710938 21.488281 46.097656 21.097656 C 46.488281 20.710938 46.488281 20.074219 46.097656 19.6875 C 45.914062 19.5 45.667969 19.394531 45.40625 19.390625 Z M 66.621094 19.390625 C 66.351562 19.386719 66.089844 19.492188 65.898438 19.6875 C 65.507812 20.074219 65.507812 20.710938 65.898438 21.097656 C 66.289062 21.488281 66.921875 21.488281 67.3125 21.097656 C 67.703125 20.710938 67.703125 20.074219 67.3125 19.6875 C 67.128906 19.5 66.882812 19.398438 66.621094 19.390625 Z M 36.964844 22.5 C 36.796875 22.503906 36.636719 22.550781 36.488281 22.632812 C 36.261719 22.765625 36.09375 22.984375 36.023438 23.242188 C 35.953125 23.496094 35.988281 23.769531 36.125 24 C 36.253906 24.230469 36.472656 24.398438 36.730469 24.464844 C 36.988281 24.535156 37.261719 24.5 37.488281 24.363281 C 37.96875 24.089844 38.132812 23.476562 37.855469 23 C 37.671875 22.683594 37.332031 22.492188 36.964844 22.5 Z M 68.964844 22.5 C 68.796875 22.503906 68.632812 22.550781 68.488281 22.632812 C 68.257812 22.765625 68.089844 22.984375 68.023438 23.242188 C 67.953125 23.496094 67.988281 23.769531 68.125 24 C 68.398438 24.476562 69.011719 24.640625 69.488281 24.363281 C 69.964844 24.089844 70.128906 23.476562 69.855469 23 C 69.671875 22.683594 69.332031 22.492188 68.964844 22.5 Z M 10.964844 22.5 C 10.625 22.519531 10.316406 22.707031 10.144531 23 C 9.867188 23.476562 10.03125 24.089844 10.511719 24.363281 C 10.738281 24.5 11.011719 24.535156 11.269531 24.464844 C 11.527344 24.398438 11.746094 24.230469 11.875 24 C 12.152344 23.523438 11.988281 22.910156 11.511719 22.636719 C 11.34375 22.539062 11.152344 22.492188 10.964844 22.5 Z M 42.964844 22.5 C 42.621094 22.515625 42.3125 22.703125 42.140625 23 C 42.007812 23.230469 41.972656 23.503906 42.042969 23.757812 C 42.113281 24.015625 42.28125 24.234375 42.511719 24.367188 C 42.988281 24.644531 43.597656 24.476562 43.875 24 C 44.152344 23.523438 43.988281 22.910156 43.511719 22.636719 C 43.34375 22.539062 43.152344 22.492188 42.964844 22.5 Z M 40.007812 26 C 39.984375 26 39.960938 26 39.9375 26 C 39.871094 26.007812 39.804688 26.015625 39.738281 26.035156 C 39.207031 26.179688 38.890625 26.726562 39.03125 27.261719 C 39.175781 27.792969 39.722656 28.109375 40.257812 27.96875 C 40.792969 27.824219 41.109375 27.277344 40.964844 26.742188 C 40.847656 26.308594 40.457031 26.003906 40.007812 26 Z M 9.5 26.117188 C 9.050781 26.121094 8.660156 26.425781 8.546875 26.859375 C 8.402344 27.394531 8.71875 27.941406 9.25 28.082031 C 9.785156 28.226562 10.332031 27.910156 10.476562 27.375 C 10.621094 26.84375 10.304688 26.296875 9.769531 26.152344 C 9.683594 26.128906 9.59375 26.117188 9.5 26.117188 Z M 70.527344 26.121094 C 70.425781 26.117188 70.328125 26.128906 70.230469 26.15625 C 69.695312 26.296875 69.378906 26.84375 69.523438 27.378906 C 69.667969 27.914062 70.214844 28.230469 70.75 28.085938 C 71.28125 27.941406 71.597656 27.394531 71.453125 26.859375 C 71.34375 26.4375 70.964844 26.136719 70.527344 26.121094 Z M 9 30 C 8.449219 30 8 30.449219 8 31 C 8 31.550781 8.449219 32 9 32 C 9.550781 32 10 31.550781 10 31 C 10 30.449219 9.550781 30 9 30 Z M 71 30 C 70.449219 30 70 30.449219 70 31 C 70 31.550781 70.449219 32 71 32 C 71.550781 32 72 31.550781 72 31 C 72 30.449219 71.550781 30 71 30 Z M 9.546875 33.882812 C 9.449219 33.878906 9.347656 33.890625 9.25 33.917969 C 8.71875 34.058594 8.402344 34.605469 8.546875 35.140625 C 8.6875 35.675781 9.234375 35.992188 9.769531 35.847656 C 10.304688 35.703125 10.621094 35.15625 10.476562 34.625 C 10.363281 34.199219 9.988281 33.898438 9.546875 33.882812 Z M 70.480469 33.882812 C 70.03125 33.886719 69.640625 34.191406 69.523438 34.625 C 69.378906 35.160156 69.695312 35.707031 70.230469 35.847656 C 70.765625 35.992188 71.3125 35.675781 71.453125 35.140625 C 71.597656 34.609375 71.28125 34.0625 70.75 33.917969 C 70.660156 33.894531 70.570312 33.882812 70.480469 33.882812 Z M 10.984375 37.5 C 10.820312 37.503906 10.65625 37.550781 10.511719 37.632812 C 10.03125 37.910156 9.867188 38.519531 10.144531 39 C 10.421875 39.476562 11.03125 39.640625 11.511719 39.363281 C 11.738281 39.234375 11.90625 39.015625 11.976562 38.757812 C 12.042969 38.5 12.007812 38.226562 11.875 38 C 11.691406 37.683594 11.351562 37.492188 10.984375 37.5 Z M 68.941406 37.503906 C 68.601562 37.519531 68.292969 37.707031 68.125 38 C 67.847656 38.480469 68.011719 39.089844 68.488281 39.367188 C 68.71875 39.5 68.992188 39.535156 69.246094 39.46875 C 69.503906 39.398438 69.722656 39.230469 69.855469 39 C 70.132812 38.523438 69.964844 37.914062 69.488281 37.636719 C 69.324219 37.539062 69.132812 37.496094 68.941406 37.503906 Z M 68.941406 37.503906 "/>
</g>
</svg>
